<svg width="14" height="14" viewBox="0 0 14 14" fill="none" xmlns="http://www.w3.org/2000/svg">
<path d="M10.6 9.37C11.3661 8.37134 11.7771 7.14563 11.768 5.887C11.7719 5.11642 11.6238 4.35263 11.332 3.63941C11.0403 2.92619 10.6106 2.27755 10.0678 1.73067C9.52487 1.18379 8.87939 0.749408 8.16833 0.452427C7.45727 0.155446 6.69459 0.00170026 5.924 0C4.35948 0.00128198 2.85887 0.620895 1.74922 1.7238C0.639566 2.82671 0.0108184 4.32351 0 5.888C0.0108184 7.45249 0.639566 8.94929 1.74922 10.0522C2.85887 11.1551 4.35948 11.7747 5.924 11.776C7.18873 11.7982 8.42326 11.3887 9.424 10.615L11.924 13.103C11.9996 13.1816 12.0903 13.2442 12.1906 13.2869C12.291 13.3297 12.3989 13.3517 12.508 13.3517C12.6171 13.3517 12.725 13.3297 12.8254 13.2869C12.9257 13.2442 13.0164 13.1816 13.092 13.103C13.1708 13.0283 13.2336 12.9382 13.2765 12.8384C13.3194 12.7386 13.3415 12.6311 13.3415 12.5225C13.3415 12.4139 13.3194 12.3064 13.2765 12.2066C13.2336 12.1068 13.1708 12.0167 13.092 11.942L10.6 9.37ZM5.927 10.033C5.37483 10.042 4.82633 9.94175 4.31304 9.73802C3.79976 9.53429 3.3318 9.23111 2.93609 8.8459C2.54038 8.4607 2.22473 8.00107 2.00727 7.49344C1.78982 6.98581 1.67486 6.44021 1.669 5.888C1.68613 4.77067 2.14201 3.7049 2.93821 2.92081C3.73441 2.13673 4.80704 1.69724 5.9245 1.69724C7.04196 1.69724 8.1146 2.13673 8.91079 2.92081C9.70699 3.7049 10.1629 4.77067 10.18 5.888C10.1743 6.44012 10.0595 6.98567 9.8422 7.49328C9.62493 8.00089 9.30947 8.46055 8.91396 8.84583C8.51845 9.23112 8.05069 9.53443 7.53757 9.73834C7.02445 9.94225 6.47608 10.0427 5.924 10.034L5.927 10.033Z" fill="#B5B5B5"/>
</svg>
